<?xml version="1.0" standalone="no"?><!DOCTYPE svg PUBLIC "-//W3C//DTD SVG 1.1//EN"
        "http://www.w3.org/Graphics/SVG/1.1/DTD/svg11.dtd">
<svg t="1698944101750" class="icon" viewBox="0 0 1024 1024" version="1.1" xmlns="http://www.w3.org/2000/svg"
     p-id="45263" xmlns:xlink="http://www.w3.org/1999/xlink">
    <path d="M937.5 343.6c-4.2-7.9-12.4-12.8-21.3-12.8H658.1l-125-242.9c-4.1-8.1-12.4-13.1-21.5-13.1s-17.4 5.1-21.5 13.1l-125 242.9H107c-8.9 0-17.1 4.9-21.3 12.8-4.2 7.8-3.8 17.4 1.2 24.8l167.9 252.5-92.1 293.7c-2.8 8.9-0.3 18.5 6.5 24.8 6.7 6.4 16.5 8.3 25.2 5L511.6 824l317.3 120.4c2.8 1.1 5.7 1.6 8.6 1.6 6.1 0 12-2.3 16.6-6.6 6.7-6.3 9.3-16 6.5-24.8l-92.1-293.7 167.9-252.5c4.9-7.4 5.3-17 1.1-24.8zM721.7 603.7c-4.1 6.1-5.1 13.7-2.9 20.6l80.7 257.2-279.3-106c-2.8-1-5.7-1.6-8.6-1.6-2.9 0-5.8 0.5-8.6 1.6l-279.3 106 80.7-257.2c2.2-7 1.1-14.6-2.9-20.6L152.2 379.2h227.7c9.1 0 17.4-5.1 21.5-13.1l110.2-214.2 110.2 214.2c4.1 8.1 12.4 13.1 21.5 13.1H871L721.7 603.7zM399.4 485.4c0-16-13-29-29-29s-29 13-29 29 13 29 29 29 29-13 29-29z m224.4 0c0 16 13 29 29 29s29-13 29-29-13-29-29-29c-16.1 0-29 13-29 29zM651.5 600c-11.7-6.4-26.4-2.1-32.8 9.7-21.4 39.3-62.4 63.6-107 63.6s-85.7-24.4-107-63.6c-6.4-11.7-21.1-16-32.8-9.7-11.7 6.4-16.1 21.1-9.7 32.8 29.9 54.8 87.2 88.9 149.5 88.9s119.7-34.1 149.5-88.9c6.3-11.7 2-26.4-9.7-32.8z"
          fill="var(--color-text-3)" p-id="45264"></path>
</svg>