<?xml version="1.0" standalone="no"?><!DOCTYPE svg PUBLIC "-//W3C//DTD SVG 1.1//EN"
        "http://www.w3.org/Graphics/SVG/1.1/DTD/svg11.dtd">
<svg t="1698943941679" class="icon" viewBox="0 0 1024 1024" version="1.1" xmlns="http://www.w3.org/2000/svg"
     p-id="41663" xmlns:xlink="http://www.w3.org/1999/xlink">
    <path d="M900.313872 565.814468c41.613617 63.400851 69.065532 136.126638 74.643064 213.340596 16.231489 225.802894-304.650894 234.496-458.12017 234.496-153.491064 0-472.913702 5.337872-458.403404-234.496 4.72783-77.911149 31.591489-151.203404 72.398978-214.974638C100.59166 476.39966-35.186383 58.673021 105.188766 16.667234 251.795064-27.234043 326.917447 330.425191 336.177021 377.834213c55.906043-28.192681 114.644426-44.010213 170.550468-44.010213 63.030468 0 128.413957 17.713021 189.67966 49.021277 0.871489-8.562383 46.145362-430.254298 205.671489-360.469788 146.715234 64.185191 24.881021 462.150809-1.742978 543.417192z m-608.735319-179.287149S247.808 157.630638 141.486298 170.986213c-106.321702 13.377362 26.122894 341.493106 26.122893 341.493106l123.925788-125.930213z m460.01566 0l124.100085 125.930213s83.880851-326.394553 0-341.471319c-83.880851-15.033191-124.100085 215.541106-124.100085 215.541106z"
          fill="var(--color-text-3)" p-id="41664"></path>
    <path d="M556.075574 810.37617c24.750298-7.756255 30.458553-45.339234 13.137703-52.115064a8.235574 8.235574 0 1 0-5.99149 15.338213c-1.481532-0.566468-0.435745 3.46417-1.067574 7.734468-1.002213 6.53617-4.575319 11.307574-11.002553 13.290213-10.174638 3.202723-18.432-1.394383-26.427915-16.122553a8.235574 8.235574 0 0 0-14.946043 1.002213c-5.90434 15.621447-13.268426 19.761021-24.989957 15.294638-10.980766-4.183149-12.266213-10.414298-3.529532-24.532426a8.235574 8.235574 0 0 0-14.009192-8.671319c-13.725957 22.222979-9.978553 40.349957 11.677958 48.607319 16.449362 6.252936 30.08817 1.895489 39.522042-11.721532 10.327149 12.091915 23.138043 16.405787 37.626553 11.89583z"
          fill="#6B6B6B" p-id="41665"></path>
    <path d="M667.996596 774.274723a75.231319 41.635404 0 1 0 150.462638 0 75.231319 41.635404 0 1 0-150.462638 0Z"
          fill="#AAAAAA" p-id="41666"></path>
    <path d="M216.586894 774.274723a75.231319 41.635404 0 1 0 150.462638 0 75.231319 41.635404 0 1 0-150.462638 0Z"
          fill="#AAAAAA" p-id="41667"></path>
    <path d="M366.940596 695.971404l-71.374979 20.850383a16.471149 16.471149 0 0 0 9.237787 31.613277l100.308426-29.30383a16.471149 16.471149 0 0 0 6.187574-28.236255l-100.308425-87.236085a16.471149 16.471149 0 0 0-21.612936 24.837446l77.562553 67.475064zM668.127319 695.971404l71.374979 20.850383a16.471149 16.471149 0 0 1-9.237787 31.613277l-100.308426-29.30383a16.471149 16.471149 0 0 1-6.209362-28.236255l100.330213-87.236085a16.471149 16.471149 0 0 1 21.612936 24.837446l-77.562553 67.475064z"
          fill="#6B6B6B" p-id="41668"></path>
</svg>