<?xml version="1.0" standalone="no"?><!DOCTYPE svg PUBLIC "-//W3C//DTD SVG 1.1//EN"
        "http://www.w3.org/Graphics/SVG/1.1/DTD/svg11.dtd">
<svg t="1698943849407" class="icon" viewBox="0 0 1024 1024" version="1.1" xmlns="http://www.w3.org/2000/svg"
     p-id="26214" xmlns:xlink="http://www.w3.org/1999/xlink">
    <path d="M959.49824 880.80896v-0.03584l-72.21248-586.5472a21.64736 21.64736 0 0 0-21.48352-18.9952h-118.3488c-10.97728-120.28416-112.35328-214.8352-235.44832-214.8352-123.09504 0-224.47616 94.55104-235.4432 214.8352H158.208a21.64224 21.64224 0 0 0-21.48352 18.9952l-72.2176 586.5472v0.03584c-0.20992 2.27328-0.32768 4.56192-0.32768 6.85056 0 41.5488 33.80736 75.35104 75.35616 75.35104h744.92928c41.55392 0 75.35616-33.80736 75.35616-75.35104 0.01024-2.28864-0.11776-4.57216-0.32256-6.85056zM512 103.68512c99.2 0 181.14048 75.17184 191.9488 171.54048H320.05632C330.85952 178.85696 412.8 103.68512 512 103.68512z m-331.1616 214.8352h662.32832l14.06976 114.3296c-62.62272 99.30752-163.87584 165.90336-276.94592 185.28256-10.84928-28.32896-38.2464-48.53248-70.33344-48.53248-31.62624 0-58.71616 19.60448-69.87776 47.28832-111.76448-20.03456-211.2768-85.65248-273.32608-184.0384l14.08512-114.3296z m361.18528 326.44096a32.1024 32.1024 0 0 1-32.06144 32.06656 32.1024 32.1024 0 0 1-32.06656-32.06656 32.1024 32.1024 0 0 1 32.06656-32.06144 32.09216 32.09216 0 0 1 32.06144 32.06144z m342.4768 274.75968l-0.03072-0.00512H139.53024l-0.03072 0.00512a32.1024 32.1024 0 0 1-32.03584-32.06144c0-1.62816 0.16384-3.24096 0.40448-4.82816l48.04096-390.18496c69.06368 89.05728 170.1376 148.67456 280.30976 167.79776 7.16288 34.14528 37.49888 59.86304 73.73824 59.86304 35.97312 0 66.10432-25.36448 73.5488-59.136 112.16896-18.19136 214.47168-78.1312 284.57984-168.53504l48.04096 390.19008c0.24064 1.59232 0.40448 3.2 0.40448 4.82816a32.1024 32.1024 0 0 1-32.03072 32.06656z"
          fill="var(--color-text-3)" p-id="26215"></path>
</svg>