<svg t="1698942960059" class="icon" viewBox="0 0 1024 1024" version="1.1" xmlns="http://www.w3.org/2000/svg" p-id="4242"
      >
    <path d="M469.333 213.333v-42.666a42.667 42.667 0 0 1 85.334 0v42.666H768A170.667 170.667 0 0 1 938.667 384v384a85.333 85.333 0 0 1-85.334 85.333H823.34a170.667 170.667 0 0 1-97.75-30.72c-92.842-64.853-164.01-97.28-213.589-97.28-49.579 0-120.747 32.427-213.59 97.28a170.667 170.667 0 0 1-97.706 30.72h-30.037A85.333 85.333 0 0 1 85.333 768V384A170.667 170.667 0 0 1 256 213.333h213.333zM256 298.667A85.333 85.333 0 0 0 170.667 384v384h29.994a85.333 85.333 0 0 0 48.896-15.36C355.584 678.528 440.277 640 512 640c71.765 0 156.416 38.528 262.443 112.64A85.333 85.333 0 0 0 823.339 768h29.994V384A85.333 85.333 0 0 0 768 298.667H256zM384 448h42.667a42.667 42.667 0 0 1 0 85.333H384V576a42.667 42.667 0 0 1-85.333 0v-42.667H256A42.667 42.667 0 0 1 256 448h42.667v-42.667a42.667 42.667 0 1 1 85.333 0V448z m298.667-85.333a42.667 42.667 0 1 1 0 85.333 42.667 42.667 0 0 1 0-85.333zM597.333 448a42.667 42.667 0 1 1 0 85.333 42.667 42.667 0 0 1 0-85.333zM768 448a42.667 42.667 0 1 1 0 85.333A42.667 42.667 0 0 1 768 448z m-85.333 85.333a42.667 42.667 0 1 1 0 85.334 42.667 42.667 0 0 1 0-85.334z"
          p-id="4243" fill="var(--color-text-3)"></path>
</svg>