<?xml version="1.0" standalone="no"?><!DOCTYPE svg PUBLIC "-//W3C//DTD SVG 1.1//EN"
        "http://www.w3.org/Graphics/SVG/1.1/DTD/svg11.dtd">
<svg t="1698943535232" class="icon" viewBox="0 0 1024 1024" version="1.1" xmlns="http://www.w3.org/2000/svg"
     p-id="15175" xmlns:xlink="http://www.w3.org/1999/xlink">
    <path d="M512 1021.888053c-263.60941 0-454.836629-174.715632-454.836629-415.797605a25.279368 25.279368 0 1 1 50.494738 0c0 211.642709 170.043749 365.366866 404.341891 365.366866 234.298143 0 404.277893-153.724157 404.277893-365.366866a25.343366 25.343366 0 1 1 50.622734 0c-0.063998 241.017975-191.355216 415.797605-454.900627 415.797605z"
          fill="var(--color-text-3)" p-id="15176"></path>
    <path d="M941.621259 631.305817a25.279368 25.279368 0 0 1-25.343366-25.279368c0-221.306467-81.085973-346.679333-140.79648-408.949776-2.367941 100.605485-43.902902 182.459439-45.758856 186.171346l-30.463238 59.070523-16.511588-64.318392c-0.767981-2.623934-67.19832-254.329642-221.690457-322.039949-2.559936 172.347691-157.116072 362.614935-163.835905 370.870728l-36.159096 44.030899-8.447788-56.38259c-0.063998-0.831979-11.519712-73.98215-56.318592-132.092698 5.311867 82.301942-20.543486 130.620734-45.694858 177.467564-22.079448 41.342966-42.942926 80.445989-42.942926 146.236344a25.279368 25.279368 0 1 1-50.494738 0c0-78.39804 26.047349-127.100822 48.894778-169.979751 26.687333-50.046749 49.790755-93.18167 36.479088-180.539486a39.935002 39.935002 0 0 1 20.79948-41.150972 38.207045 38.207045 0 0 1 44.478888 5.759856c43.710907 40.574986 68.158296 93.629659 81.213969 132.924677C334.980425 287.250419 415.298418 154.901727 410.370541 41.816555A40.190995 40.190995 0 0 1 426.498138 7.705407a38.01505 38.01505 0 0 1 35.327116-5.631859c134.844629 46.270843 212.090698 201.59496 247.097823 293.688658 9.663758-33.727157 18.111547-77.502062 15.679608-123.516912a39.487013 39.487013 0 0 1 65.790355-31.167221c65.918352 59.774506 176.507587 199.61101 176.507587 465.012375a25.279368 25.279368 0 0 1-25.279368 25.215369z"
          fill="var(--color-text-3)" p-id="15177"></path>
</svg>