<svg xmlns="http://www.w3.org/2000/svg" version="1.1" viewBox="0.00 0.00 585.00 85.00">
<path fill="#fdf3e9" d="&#10;  M 521.19 23.75&#10;  L 521.14 33.81&#10;  A 0.88 0.88 0.0 0 0 522.00 34.69&#10;  L 535.45 35.06&#10;  A 0.88 0.88 0.0 0 1 536.28 36.15&#10;  L 534.79 42.29&#10;  A 0.88 0.88 0.0 0 1 533.95 42.97&#10;  L 522.11 43.09&#10;  A 0.88 0.88 0.0 0 0 521.24 43.96&#10;  L 521.11 56.91&#10;  A 0.88 0.88 0.0 0 1 520.22 57.78&#10;  L 513.32 57.70&#10;  A 0.88 0.88 0.0 0 1 512.45 56.82&#10;  L 512.39 44.07&#10;  A 0.88 0.88 0.0 0 0 511.53 43.20&#10;  L 495.64 42.93&#10;  A 0.88 0.88 0.0 0 1 494.80 42.26&#10;  L 493.30 36.22&#10;  A 0.88 0.88 0.0 0 1 494.05 35.14&#10;  L 498.74 34.56&#10;  A 0.88 0.88 0.0 0 0 499.51 33.70&#10;  L 499.62 16.08&#10;  A 0.88 0.88 0.0 0 1 500.51 15.20&#10;  L 507.13 15.24&#10;  A 0.88 0.88 0.0 0 1 508.01 16.11&#10;  L 508.13 33.39&#10;  A 0.88 0.88 0.0 0 0 508.99 34.26&#10;  L 511.33 34.33&#10;  A 0.88 0.88 0.0 0 0 512.23 33.45&#10;  L 512.24 2.00&#10;  A 0.88 0.88 0.0 0 1 513.13 1.12&#10;  L 520.29 1.24&#10;  A 0.88 0.88 0.0 0 1 521.16 2.12&#10;  L 521.12 13.72&#10;  A 0.88 0.88 0.0 0 0 521.96 14.60&#10;  L 531.99 15.12&#10;  A 0.88 0.88 0.0 0 1 532.80 16.21&#10;  L 531.32 21.97&#10;  A 0.88 0.88 0.0 0 1 530.50 22.63&#10;  L 522.04 22.88&#10;  A 0.88 0.88 0.0 0 0 521.19 23.75&#10;  Z"/>
<path fill="#fdf3e9" d="&#10;  M 71.35 37.90&#10;  C 73.54 20.78 84.18 8.03 100.78 2.49&#10;  Q 104.96 1.10 108.60 1.20&#10;  Q 109.21 1.21 108.90 1.74&#10;  C 91.78 31.17 112.63 66.73 146.52 66.24&#10;  A 0.57 0.57 0.0 0 1 146.97 67.16&#10;  Q 133.02 84.57 111.91 84.06&#10;  Q 101.34 83.80 92.73 79.20&#10;  C 78.07 71.36 69.24 54.34 71.35 37.90&#10;  Z"/>
<path fill="#fdf3e9" d="&#10;  M 414.05 17.92&#10;  L 399.16 12.67&#10;  A 0.93 0.93 0.0 0 1 398.67 11.31&#10;  L 403.69 2.87&#10;  A 0.93 0.93 0.0 0 1 404.94 2.54&#10;  L 418.90 10.41&#10;  A 0.93 0.93 0.0 0 1 419.20 11.75&#10;  L 415.12 17.57&#10;  A 0.93 0.93 0.0 0 1 414.05 17.92&#10;  Z"/>
<path fill="#fdf3e9" d="&#10;  M 306.44 55.10&#10;  Q 306.31 57.63 308.78 57.09&#10;  L 313.37 56.10&#10;  Q 314.01 55.96 314.36 56.51&#10;  Q 317.92 62.01 324.04 64.41&#10;  A 0.57 0.57 0.0 0 1 324.26 65.31&#10;  Q 321.71 68.34 318.77 71.28&#10;  C 316.81 73.25 314.05 71.15 312.43 69.48&#10;  C 310.26 67.25 308.97 63.57 307.67 60.77&#10;  A 1.32 1.32 0.0 0 0 306.30 60.02&#10;  Q 305.33 60.15 305.26 61.10&#10;  C 304.77 67.27 297.36 84.18 290.78 80.64&#10;  Q 285.54 77.82 280.28 75.03&#10;  Q 279.79 74.77 280.26 74.48&#10;  Q 292.90 66.83 296.57 52.38&#10;  Q 296.92 51.00 295.50 50.97&#10;  L 286.56 50.78&#10;  Q 286.24 50.77 286.13 50.47&#10;  L 283.26 42.59&#10;  Q 283.13 42.23 283.51 42.22&#10;  L 297.60 41.98&#10;  A 1.14 1.14 0.0 0 0 298.72 40.90&#10;  L 299.47 27.73&#10;  Q 299.56 26.13 297.98 26.37&#10;  L 297.51 26.44&#10;  A 2.01 2.00 0.8 0 0 295.85 28.05&#10;  C 295.39 30.53 291.16 39.63 286.90 36.80&#10;  Q 283.59 34.59 280.42 32.22&#10;  Q 280.03 31.93 280.39 31.61&#10;  C 287.39 25.45 291.48 14.07 292.05 5.45&#10;  Q 292.16 3.85 293.76 3.96&#10;  L 298.62 4.30&#10;  Q 300.34 4.42 300.17 6.13&#10;  L 299.20 16.39&#10;  A 0.61 0.60 -87.4 0 0 299.80 17.05&#10;  L 318.25 17.29&#10;  Q 319.79 17.30 319.30 18.76&#10;  L 317.40 24.39&#10;  Q 316.96 25.69 315.58 25.74&#10;  L 308.71 26.01&#10;  A 0.57 0.56 89.5 0 0 308.17 26.57&#10;  L 308.08 41.16&#10;  A 0.84 0.84 0.0 0 0 308.91 42.00&#10;  L 318.96 42.23&#10;  Q 320.49 42.26 320.06 43.73&#10;  L 318.44 49.31&#10;  Q 318.02 50.75 316.52 50.77&#10;  Q 313.54 50.79 309.27 50.92&#10;  Q 307.27 50.99 307.05 52.31&#10;  C 306.91 53.10 306.45 54.77 306.44 55.10&#10;  Z"/>
<path fill="#fdf3e9" d="&#10;  M 440.23 56.11&#10;  L 431.28 55.77&#10;  Q 429.62 55.71 429.62 54.04&#10;  Q 429.66 36.29 429.54 17.69&#10;  C 429.52 13.62 428.37 9.99 427.16 6.28&#10;  A 0.90 0.90 0.0 0 1 428.02 5.10&#10;  L 476.51 5.09&#10;  A 0.91 0.91 0.0 0 1 477.37 6.30&#10;  C 476.05 10.08 475.17 13.49 475.19 17.69&#10;  Q 475.29 35.91 475.03 54.94&#10;  A 1.00 1.00 0.0 0 1 474.04 55.92&#10;  L 466.06 55.95&#10;  Q 465.04 55.96 465.03 54.94&#10;  L 464.93 15.56&#10;  A 1.37 1.36 -0.2 0 0 463.55 14.20&#10;  L 440.66 14.43&#10;  A 0.91 0.91 0.0 0 0 439.76 15.34&#10;  L 439.83 53.24&#10;  A 0.97 0.96 73.5 0 0 441.32 54.05&#10;  C 446.01 51.02 447.61 25.76 447.57 20.27&#10;  A 1.39 1.39 0.0 0 1 448.96 18.87&#10;  L 455.29 18.90&#10;  Q 456.65 18.90 456.68 20.27&#10;  Q 456.88 32.80 454.55 45.10&#10;  A 0.74 0.73 8.5 0 0 455.20 45.97&#10;  L 460.58 46.47&#10;  A 0.61 0.61 0.0 0 1 461.14 47.08&#10;  L 461.23 71.08&#10;  A 0.95 0.94 90.0 0 0 462.16 72.02&#10;  C 468.14 72.08 474.00 70.92 479.93 71.22&#10;  A 0.87 0.87 0.0 0 1 480.73 72.31&#10;  L 478.29 81.57&#10;  A 2.80 2.80 0.0 0 1 475.45 83.65&#10;  L 453.95 82.55&#10;  Q 451.10 82.41 451.26 79.55&#10;  Q 451.65 72.23 451.01 64.99&#10;  A 1.00 1.00 0.0 0 0 449.07 64.74&#10;  C 446.29 72.56 439.67 81.49 431.20 83.66&#10;  A 1.16 1.14 -33.5 0 1 430.22 83.47&#10;  L 419.50 75.50&#10;  Q 418.87 75.03 419.61 74.74&#10;  C 428.30 71.33 436.41 64.90 440.65 56.84&#10;  A 0.50 0.50 0.0 0 0 440.23 56.11&#10;  Z"/>
<path fill="#fdf3e9" d="&#10;  M 552.43 22.15&#10;  L 553.54 16.43&#10;  Q 553.71 15.54 552.81 15.51&#10;  L 537.55 15.03&#10;  Q 536.23 14.99 535.89 13.72&#10;  L 533.89 6.33&#10;  A 0.95 0.94 82.3 0 1 534.80 5.13&#10;  L 581.93 5.13&#10;  Q 583.48 5.13 583.43 6.68&#10;  L 583.23 13.35&#10;  A 1.73 1.73 0.0 0 1 581.53 15.03&#10;  L 564.72 15.34&#10;  Q 564.20 15.35 564.05 15.84&#10;  L 561.91 22.59&#10;  A 0.36 0.35 -81.3 0 0 562.24 23.05&#10;  L 580.99 23.25&#10;  A 1.06 1.06 0.0 0 1 581.99 24.62&#10;  C 580.57 29.12 579.74 33.26 579.73 38.23&#10;  Q 579.71 50.56 579.72 62.09&#10;  A 1.44 1.44 0.0 0 1 578.30 63.54&#10;  L 572.01 63.62&#10;  Q 570.64 63.64 570.64 62.26&#10;  L 570.73 34.96&#10;  A 1.78 1.78 0.0 0 0 568.96 33.18&#10;  L 550.10 33.02&#10;  Q 548.96 33.01 548.95 34.15&#10;  L 548.82 59.52&#10;  A 0.99 0.99 0.0 0 0 550.09 60.48&#10;  Q 551.37 60.09 551.84 58.52&#10;  Q 555.08 47.88 556.12 37.59&#10;  Q 556.21 36.76 557.04 36.81&#10;  L 563.81 37.24&#10;  Q 564.69 37.30 564.67 38.18&#10;  C 564.45 52.03 559.99 79.45 543.14 83.63&#10;  A 0.87 0.85 56.0 0 1 542.44 83.49&#10;  L 532.32 76.29&#10;  Q 531.59 75.77 532.43 75.46&#10;  Q 542.39 71.85 549.43 63.91&#10;  A 0.56 0.56 0.0 0 0 549.03 62.98&#10;  L 539.78 62.74&#10;  A 0.52 0.52 0.0 0 1 539.27 62.23&#10;  Q 539.09 49.55 539.26 36.78&#10;  C 539.31 32.50 538.24 28.90 537.01 25.01&#10;  A 1.32 1.32 0.0 0 1 538.25 23.29&#10;  L 551.34 23.06&#10;  Q 552.25 23.05 552.43 22.15&#10;  Z"/>
<path fill="#fdf3e9" d="&#10;  M 371.35 5.90&#10;  A 0.36 0.36 0.0 0 1 371.71 6.26&#10;  L 371.71 7.47&#10;  A 8.51 3.86 -89.9 0 1 367.83 15.97&#10;  L 321.27 15.89&#10;  A 8.51 3.86 -89.9 0 1 317.43 7.37&#10;  L 317.43 6.16&#10;  A 0.36 0.36 0.0 0 1 317.79 5.80&#10;  L 371.35 5.90&#10;  Z"/>
<path fill="#fdf3e9" d="&#10;  M 41.38 58.60&#10;  L 18.01 58.67&#10;  A 0.32 0.32 0.0 0 0 17.70 58.88&#10;  L 11.76 75.63&#10;  A 0.32 0.32 0.0 0 1 11.45 75.84&#10;  L 1.90 75.86&#10;  A 0.32 0.32 0.0 0 1 1.60 75.43&#10;  L 24.00 12.34&#10;  A 0.32 0.32 0.0 0 1 24.31 12.13&#10;  L 34.66 12.15&#10;  A 0.32 0.32 0.0 0 1 34.96 12.36&#10;  L 57.95 75.36&#10;  A 0.32 0.32 0.0 0 1 57.65 75.79&#10;  L 48.28 75.91&#10;  A 0.32 0.32 0.0 0 1 47.97 75.70&#10;  L 41.68 58.81&#10;  A 0.32 0.32 0.0 0 0 41.38 58.60&#10;  Z&#10;  M 37.76 49.27&#10;  A 0.23 0.23 0.0 0 0 37.97 48.96&#10;  L 30.91 29.99&#10;  Q 30.48 28.85 29.38 29.35&#10;  Q 28.26 29.85 27.59 31.72&#10;  Q 24.55 40.24 21.51 48.67&#10;  A 0.56 0.56 0.0 0 0 22.05 49.42&#10;  L 37.76 49.27&#10;  Z"/>
<path fill="#fdf3e9" d="&#10;  M 170.05 40.03&#10;  L 201.73 40.17&#10;  A 0.95 0.95 0.0 0 1 202.65 41.37&#10;  L 200.89 48.01&#10;  A 0.95 0.95 0.0 0 1 199.97 48.71&#10;  L 170.13 48.87&#10;  A 0.95 0.95 0.0 0 0 169.18 49.82&#10;  L 169.20 66.05&#10;  A 0.95 0.95 0.0 0 0 170.15 67.00&#10;  L 204.93 67.14&#10;  A 0.95 0.95 0.0 0 1 205.84 68.35&#10;  L 203.90 75.19&#10;  A 0.95 0.95 0.0 0 1 202.98 75.88&#10;  L 159.44 75.87&#10;  A 0.95 0.95 0.0 0 1 158.49 74.92&#10;  L 158.52 19.74&#10;  A 0.95 0.95 0.0 0 1 158.78 19.09&#10;  L 164.30 13.22&#10;  A 0.95 0.95 0.0 0 1 164.99 12.92&#10;  L 202.88 12.97&#10;  A 0.95 0.95 0.0 0 1 203.80 14.15&#10;  L 202.24 20.26&#10;  A 0.95 0.95 0.0 0 1 201.33 20.98&#10;  L 170.18 21.29&#10;  A 0.95 0.95 0.0 0 0 169.24 22.23&#10;  L 169.11 39.08&#10;  A 0.95 0.95 0.0 0 0 170.05 40.03&#10;  Z"/>
<path fill="#fdf3e9" d="&#10;  M 235.69 22.92&#10;  C 227.94 28.75 232.83 38.86 241.51 39.76&#10;  C 252.50 40.91 265.62 41.35 268.29 54.48&#10;  C 270.04 63.02 264.91 69.19 257.39 72.80&#10;  Q 245.62 78.47 233.19 73.77&#10;  Q 220.75 69.07 219.40 54.62&#10;  Q 219.36 54.23 219.76 54.20&#10;  Q 224.58 53.90 229.21 55.29&#10;  A 0.81 0.81 0.0 0 1 229.78 55.92&#10;  C 231.59 65.29 241.64 69.03 249.82 66.60&#10;  C 254.70 65.15 258.92 59.42 256.97 54.31&#10;  C 254.79 48.58 246.11 48.28 240.93 47.93&#10;  C 234.31 47.49 224.69 43.70 222.71 36.53&#10;  C 219.77 25.88 226.16 16.49 236.43 13.76&#10;  C 239.71 12.88 243.54 13.02 247.22 13.04&#10;  C 258.70 13.10 266.01 20.68 266.87 32.03&#10;  Q 266.92 32.65 266.31 32.73&#10;  Q 261.04 33.43 256.02 31.74&#10;  A 0.78 0.77 -78.6 0 1 255.50 30.94&#10;  C 256.56 19.32 242.49 17.79 235.69 22.92&#10;  Z"/>
<path fill="#fdf3e9" d="&#10;  M 412.06 32.81&#10;  A 0.62 0.61 -73.7 0 0 411.55 31.87&#10;  L 394.05 31.50&#10;  A 0.45 0.45 0.0 0 1 393.62 31.17&#10;  L 391.02 22.30&#10;  Q 390.91 21.92 391.30 21.92&#10;  L 423.40 21.93&#10;  Q 424.05 21.93 424.00 22.58&#10;  Q 423.26 33.43 417.47 42.59&#10;  Q 417.08 43.20 417.70 43.59&#10;  L 426.81 49.30&#10;  Q 428.05 50.08 427.26 51.30&#10;  Q 425.53 53.99 422.79 57.02&#10;  Q 421.36 58.60 420.07 57.72&#10;  Q 418.13 56.41 415.89 55.13&#10;  A 1.21 1.20 -75.0 0 0 414.08 56.18&#10;  L 414.18 83.27&#10;  Q 414.18 83.98 413.48 83.98&#10;  L 404.41 83.94&#10;  Q 403.62 83.94 403.62 83.16&#10;  L 403.53 59.93&#10;  Q 403.52 57.90 401.65 58.70&#10;  L 396.00 61.10&#10;  A 2.06 2.04 -31.6 0 1 393.64 60.55&#10;  L 386.08 51.65&#10;  A 0.55 0.54 -28.7 0 1 386.34 50.78&#10;  C 397.59 47.19 405.86 42.98 412.06 32.81&#10;  Z"/>
<path fill="#fdf3e9" d="&#10;  M 320.21 24.87&#10;  A 0.20 0.19 74.2 0 1 320.34 24.62&#10;  Q 322.31 24.05 324.50 24.05&#10;  Q 346.52 24.05 368.66 24.21&#10;  A 0.65 0.65 0.0 0 1 369.26 25.11&#10;  C 367.75 28.77 367.06 32.00 367.10 36.22&#10;  Q 367.19 45.16 366.84 53.29&#10;  Q 366.77 54.96 365.09 54.96&#10;  Q 345.62 54.93 329.00 54.99&#10;  Q 325.85 55.00 323.45 54.67&#10;  A 0.62 0.62 0.0 0 1 322.92 54.02&#10;  Q 323.48 45.08 323.08 36.19&#10;  C 322.90 32.10 321.58 28.71 320.21 24.87&#10;  Z&#10;  M 355.8401 33.8102&#10;  A 0.90 0.90 0.0 0 0 354.9385 32.9118&#10;  L 334.0585 32.9482&#10;  A 0.90 0.90 0.0 0 0 333.1601 33.8498&#10;  L 333.1799 45.1898&#10;  A 0.90 0.90 0.0 0 0 334.0815 46.0882&#10;  L 354.9615 46.0518&#10;  A 0.90 0.90 0.0 0 0 355.8599 45.1502&#10;  L 355.8401 33.8102&#10;  Z"/>
<path fill="#fdf3e9" d="&#10;  M 508.97 49.35&#10;  C 509.06 55.15 506.37 61.30 501.57 64.77&#10;  C 499.72 66.12 497.98 66.15 496.62 64.28&#10;  C 495.09 62.16 493.35 60.30 491.73 58.25&#10;  A 0.47 0.46 61.4 0 1 491.94 57.52&#10;  C 498.15 55.41 498.77 51.73 502.46 47.19&#10;  A 0.83 0.83 0.0 0 1 503.35 46.93&#10;  L 508.36 48.52&#10;  Q 508.96 48.71 508.97 49.35&#10;  Z"/>
<path fill="#fdf3e9" d="&#10;  M 492.16 71.27&#10;  C 508.47 70.70 521.02 63.62 528.86 49.18&#10;  A 1.61 1.60 -60.0 0 1 531.11 48.57&#10;  L 535.16 51.04&#10;  Q 536.54 51.88 535.85 53.35&#10;  C 528.59 68.80 518.55 79.26 501.38 82.63&#10;  Q 498.81 83.14 497.63 81.39&#10;  Q 494.41 76.61 491.69 72.13&#10;  Q 491.19 71.30 492.16 71.27&#10;  Z"/>
<path fill="#fdf3e9" d="&#10;  M 330.80 71.91&#10;  C 328.94 69.41 328.41 65.89 326.67 62.96&#10;  A 0.61 0.61 0.0 0 1 327.02 62.06&#10;  L 336.30 59.38&#10;  A 1.35 1.35 0.0 0 1 337.98 60.34&#10;  L 341.19 72.86&#10;  A 0.93 0.92 3.3 0 0 341.76 73.49&#10;  Q 344.66 74.60 347.65 73.65&#10;  A 0.92 0.91 88.9 0 0 348.26 73.01&#10;  L 351.73 59.86&#10;  A 0.67 0.66 -79.3 0 1 352.44 59.37&#10;  Q 357.62 59.90 362.26 62.14&#10;  Q 362.81 62.41 362.57 62.97&#10;  L 358.41 72.90&#10;  A 0.77 0.77 0.0 0 0 359.11 73.97&#10;  L 372.51 74.14&#10;  Q 373.89 74.16 373.52 75.49&#10;  L 371.60 82.31&#10;  A 1.97 1.96 7.6 0 1 369.72 83.74&#10;  L 319.82 83.78&#10;  A 1.63 1.62 82.6 0 1 318.25 82.56&#10;  L 316.36 75.22&#10;  Q 316.06 74.04 317.28 74.03&#10;  L 329.76 74.00&#10;  Q 332.35 73.99 330.80 71.91&#10;  Z"/>
<path fill="#fdf3e9" d="&#10;  M 583.38 73.26&#10;  C 583.24 75.50 581.32 79.90 580.16 81.60&#10;  Q 578.87 83.51 576.74 82.64&#10;  Q 568.08 79.10 563.17 71.10&#10;  Q 562.80 70.50 563.31 70.01&#10;  L 567.14 66.35&#10;  A 0.77 0.77 0.0 0 1 568.09 66.26&#10;  Q 575.00 70.61 582.89 72.60&#10;  A 0.65 0.64 8.7 0 1 583.38 73.26&#10;  Z"/>
</svg>