<?xml version="1.0" standalone="no"?><!DOCTYPE svg PUBLIC "-//W3C//DTD SVG 1.1//EN"
        "http://www.w3.org/Graphics/SVG/1.1/DTD/svg11.dtd">
<svg t="1698943862239" class="icon" viewBox="0 0 1024 1024" version="1.1" xmlns="http://www.w3.org/2000/svg"
     p-id="27291" xmlns:xlink="http://www.w3.org/1999/xlink">
    <path d="M934.4 571.733333c2.133333-19.2 4.266667-38.4 4.266667-59.733333 0-142.933333-70.4-268.8-177.066667-345.6-2.133333-2.133333-6.4-6.4-8.533333-6.4C682.666667 113.066667 601.6 85.333333 512 85.333333 277.333333 85.333333 85.333333 277.333333 85.333333 512c0 102.4 36.266667 196.266667 96 268.8C260.266667 876.8 379.733333 938.666667 512 938.666667c213.333333 0 390.4-157.866667 420.266667-362.666667 2.133333-2.133333 2.133333-2.133333 2.133333-4.266667zM896 512c0 12.8 0 25.6-2.133333 38.4-12.8 2.133333-27.733333 2.133333-40.533334 2.133333-57.6 0-113.066667-12.8-162.133333-36.266666C740.266667 433.066667 768 337.066667 768 234.666667v-6.4c78.933333 70.4 128 170.666667 128 283.733333zM725.333333 192v42.666667c0 96-25.6 185.6-72.533333 262.4-108.8-68.266667-183.466667-189.866667-183.466667-328.533334 0-12.8 0-25.6 2.133334-38.4 12.8-2.133333 27.733333-2.133333 40.533333-2.133333 78.933333 0 151.466667 23.466667 213.333333 64zM428.8 136.533333c0 10.666667-2.133333 21.333333-2.133333 32 0 153.6 81.066667 288 202.666666 362.666667-29.866667 40.533333-64 76.8-102.4 106.666667-76.8-115.2-206.933333-192-356.266666-192-12.8 0-25.6 0-38.4 2.133333C160 294.4 277.333333 170.666667 428.8 136.533333zM128 492.8c14.933333-2.133333 29.866667-2.133333 44.8-2.133333 134.4 0 251.733333 68.266667 320 172.8C411.733333 714.666667 317.866667 746.666667 213.333333 746.666667h-6.4C157.866667 680.533333 128 599.466667 128 512v-19.2z m117.333333 294.4c98.133333-6.4 189.866667-36.266667 268.8-87.466667 25.6 51.2 42.666667 110.933333 42.666667 172.8v19.2c-14.933333 4.266667-29.866667 4.266667-44.8 4.266667-104.533333 0-198.4-40.533333-266.666667-108.8zM597.333333 885.333333v-12.8c0-72.533333-17.066667-138.666667-49.066666-198.4 44.8-34.133333 85.333333-76.8 119.466666-123.733333 55.466667 27.733333 119.466667 42.666667 185.6 42.666667 10.666667 0 21.333333 0 32-2.133334C855.466667 738.133333 742.4 853.333333 597.333333 885.333333z"
          fill="var(--color-text-3)" p-id="27292"></path>
</svg>